<svg width="156" height="142" viewBox="0 0 156 142" fill="none" xmlns="http://www.w3.org/2000/svg">
<path fill-rule="evenodd" clip-rule="evenodd" d="M137 50L127.829 5.63304C126.282 -0.343313 119.491 0.00375839 119.491 0.00375839L104.465 0.473985C88.6076 0.955407 78.4702 15.4272 78.4702 15.4272L54 50H137Z" fill="#EF3F24"/>
<path fill-rule="evenodd" clip-rule="evenodd" d="M96 77L105.659 133.107C107.571 142.417 117.591 141.997 117.591 141.997H151.29C158.002 141.997 155.571 135.555 155.571 135.555L144.225 77H96Z" fill="#696968"/>
<path fill-rule="evenodd" clip-rule="evenodd" d="M35.5285 77L3.11127 128.006C-5.31449 141.026 6.04274 141.958 6.04274 141.958H41.9429C47.0715 142.68 52.9344 133.793 52.9344 133.793L88 77H35.5285Z" fill="#696968"/>
<path d="M51.6484 54H138.025L140 61H46L51.6484 54Z" fill="#EF3F24"/>
<path d="M43.2932 65H141L143 72H38L43.2932 65Z" fill="#EF3F24"/>
</svg>
